<svg version="1.1" id="Layer_1" xmlns="http://www.w3.org/2000/svg" xmlns:xlink="http://www.w3.org/1999/xlink" x="0px" y="0px"
	 width="100%" viewBox="0 0 800 800" enable-background="new 0 0 800 800" xml:space="preserve">
<path fill="#000000" opacity="1.000000" stroke="none" 
	d="
M505.532471,297.668030 
	C488.454315,301.041412 471.571350,302.209045 454.669830,303.385925 
	C428.039062,305.240204 401.341797,305.094879 374.775116,303.820496 
	C352.800171,302.766388 330.823456,299.751007 309.217865,294.909668 
	C297.047333,292.182556 284.915253,289.342102 273.402069,284.448547 
	C268.820038,282.501007 264.436218,280.075470 260.011749,277.772308 
	C255.735245,275.546173 252.002380,275.954529 247.945419,278.793274 
	C225.003952,294.845947 209.282532,316.889008 195.780106,340.844971 
	C191.523422,348.397186 187.920074,356.259705 184.386826,364.158081 
	C183.682236,365.733124 182.946442,367.144379 181.233688,367.847717 
	C179.108353,367.448120 178.958267,365.729340 178.757034,364.068939 
	C175.260452,335.219635 174.418793,306.321564 179.894028,277.678131 
	C186.778107,241.664536 202.776062,210.280334 231.089279,186.333542 
	C241.843155,177.238113 254.251892,170.211533 267.383972,164.649887 
	C300.668121,150.553436 334.873260,139.473450 370.049805,131.041870 
	C388.076141,126.721092 406.468353,123.781975 423.961334,117.049545 
	C437.836975,111.709290 448.743530,102.945862 457.920929,91.725777 
	C463.004700,85.510452 464.719788,85.278305 469.233673,92.068672 
	C475.899689,102.096405 482.370911,112.186478 481.349945,125.109192 
	C480.791992,132.171509 478.839691,138.795822 476.136261,145.264832 
	C475.431396,146.951492 474.642670,148.614075 474.087128,150.350021 
	C472.737335,154.567780 473.772491,155.994965 478.176758,155.660767 
	C482.497742,155.332886 486.622894,153.963242 490.792297,152.825775 
	C506.130096,148.641403 519.895813,141.454605 531.562012,130.686630 
	C537.145630,125.532906 542.217407,119.778397 545.570374,112.709389 
	C548.435059,106.669708 551.452576,106.434845 555.196289,112.018097 
	C568.406006,131.718887 574.003906,153.278137 570.336670,176.925903 
	C569.168701,184.457626 565.460266,191.047516 561.870361,197.610199 
	C560.478760,200.154114 559.553955,202.503708 561.447144,204.994034 
	C563.413757,207.580917 566.082825,206.521774 568.316711,205.605743 
	C580.339233,200.675888 589.643921,192.264297 597.638977,182.243317 
	C598.261658,181.462875 598.783691,180.594971 599.456116,179.862915 
	C600.566284,178.654343 601.619934,177.078873 603.571167,177.585861 
	C605.366577,178.052322 605.348022,179.888870 605.674011,181.274353 
	C613.163818,213.104889 610.180481,243.005386 589.252197,269.552826 
	C585.077515,274.848480 580.199158,279.040894 573.717041,281.593018 
	C554.705383,289.078278 534.831482,292.921204 514.818726,296.283447 
	C511.874298,296.778137 508.903656,297.116730 505.532471,297.668030 
z"/>
<path fill="#000000" opacity="1.000000" stroke="none" 
	d="
M247.188065,547.219238 
	C235.123978,544.640808 223.982605,540.801819 213.969833,534.238525 
	C206.057648,529.052063 199.734909,522.520447 195.532715,513.744934 
	C186.500854,494.883453 180.498718,474.994904 174.770828,455.005676 
	C172.353256,446.568848 169.451889,438.375549 163.132828,432.155304 
	C153.957428,423.123474 154.156845,411.920624 154.813858,400.491302 
	C155.030640,396.719910 158.298843,396.364380 160.985397,395.783905 
	C176.565536,392.417725 192.106781,388.815277 207.784210,385.970947 
	C224.445984,382.947998 241.181564,379.946716 258.255463,380.804901 
	C282.026794,381.999725 305.640381,384.656464 328.805817,390.211426 
	C359.105225,397.477112 389.769836,401.269409 420.816711,398.445312 
	C436.617676,397.007996 452.282745,393.669952 467.924683,390.533813 
	C493.627777,385.380463 519.349060,379.453430 545.868591,380.851715 
	C565.501831,381.886932 584.766846,385.505890 603.840576,390.183228 
	C611.584778,392.082306 619.345032,393.916687 627.106079,395.746094 
	C635.439636,397.710358 637.316772,400.012115 637.335449,408.424164 
	C637.338013,409.590546 637.225708,410.768555 637.349731,411.921478 
	C638.234375,420.147430 636.387634,426.947052 629.519470,432.610168 
	C622.926636,438.046265 621.851440,446.764221 619.370789,454.487122 
	C614.799255,468.719330 612.814697,483.698730 607.192993,497.618683 
	C595.686829,526.109253 573.622437,541.861328 544.227356,547.061096 
	C521.198914,551.134583 498.463379,548.408569 476.871979,538.650696 
	C466.932495,534.158691 459.136841,526.871521 451.924927,519.031982 
	C436.296295,502.043182 428.346466,481.053040 421.847473,459.404907 
	C420.345154,454.400665 417.817719,449.915894 415.295258,445.431396 
	C412.823608,441.037201 409.223145,438.679169 403.805939,439.218597 
	C399.681580,439.629272 395.458954,439.573456 391.322723,439.222229 
	C385.136566,438.696869 381.515686,441.649811 379.638153,447.118805 
	C376.401550,456.546448 373.708099,466.177185 370.112549,475.461639 
	C361.545959,497.582397 350.342987,518.185974 330.884125,532.697876 
	C317.010162,543.044617 301.371643,549.250061 283.514191,548.363953 
	C271.560028,547.770874 259.536469,549.274048 247.188065,547.219238 
M188.166199,434.542419 
	C187.181564,457.238678 192.508728,478.875275 200.523041,499.739044 
	C207.602875,518.170105 220.851776,530.756958 240.719742,535.222168 
	C254.459656,538.310181 268.395111,538.440735 282.375946,537.728455 
	C305.634338,536.543640 325.566071,527.279053 339.308441,508.893250 
	C354.013611,489.219421 364.365692,466.970367 366.622131,441.796112 
	C367.560455,431.328003 365.635803,422.121124 357.782471,414.367645 
	C354.134521,410.766144 350.109711,408.095581 345.698822,405.782928 
	C334.085052,399.693726 321.643707,395.402771 308.724030,394.567047 
	C291.296448,393.439728 273.746948,394.304779 256.253540,394.052551 
	C242.649521,393.856384 229.425629,396.250732 216.330933,399.440399 
	C198.415588,403.804260 188.672302,415.821014 188.166199,434.542419 
M435.839294,416.351196 
	C426.336700,426.722107 428.042236,439.130829 429.942749,451.304962 
	C432.608795,468.383118 440.933167,483.346008 449.061279,498.238068 
	C461.048767,520.201294 480.506317,533.235901 504.408386,536.972290 
	C522.275024,539.765259 540.994324,539.073669 558.901855,534.010925 
	C575.376221,529.353455 586.787048,518.158997 593.422974,503.058197 
	C603.861023,479.305267 608.434875,454.200165 606.851807,428.093994 
	C606.558777,423.262573 605.528198,419.014679 602.877808,414.967468 
	C598.358704,408.066559 591.726379,404.088379 584.335571,401.248779 
	C572.251404,396.605957 559.501587,394.946503 546.713684,394.419617 
	C532.085632,393.816895 517.408752,394.454041 502.773651,393.952759 
	C490.991760,393.549194 479.611755,395.170624 468.353577,398.361877 
	C456.350006,401.764343 445.090454,406.490570 435.839294,416.351196 
z"/>
<path fill="#000000" opacity="1.000000" stroke="none" 
	d="
M175.738953,680.593384 
	C175.692429,644.650452 175.672623,609.166016 175.689529,573.681641 
	C175.690674,571.280212 174.992401,568.179504 178.441498,567.594299 
	C181.528519,567.070618 182.628021,569.846924 183.750778,572.036499 
	C193.093201,590.255798 202.378159,608.504639 211.710098,626.729309 
	C212.594299,628.455994 213.151230,630.429260 215.346863,632.014221 
	C221.601746,619.761658 227.761169,607.647217 233.967010,595.556580 
	C238.072876,587.557251 242.222702,579.580200 246.402679,571.619385 
	C247.564682,569.406311 248.770782,566.845764 251.933670,567.645020 
	C255.099411,568.445007 254.278412,571.302368 254.280838,573.499207 
	C254.319214,608.317261 254.307602,643.135437 254.296570,677.953552 
	C254.296188,679.116028 254.281998,680.294617 254.097107,681.437134 
	C253.823669,683.126770 252.732086,684.069153 251.008347,684.122253 
	C249.240845,684.176880 248.130814,683.202148 247.891876,681.526245 
	C247.658340,679.888306 247.665741,678.207825 247.665039,676.546021 
	C247.653122,648.225037 247.656403,619.904053 247.656311,591.583069 
	C247.656311,589.643616 247.656311,587.704163 247.656311,585.764771 
	C247.352219,585.688110 247.048126,585.611511 246.744034,585.534912 
	C240.784790,596.956848 234.828674,608.380432 228.865173,619.800110 
	C225.629196,625.996704 222.392975,632.193176 219.130569,638.375793 
	C218.133209,640.265991 217.361572,642.751404 214.869705,642.811157 
	C212.307877,642.872559 211.566071,640.311462 210.602707,638.448853 
	C202.341064,622.475098 194.133926,606.473145 185.907059,590.481384 
	C185.075775,588.865479 184.221664,587.261353 183.089493,585.100952 
	C181.955276,587.311768 182.365524,589.232788 182.363358,591.024658 
	C182.329361,619.179016 182.338943,647.333435 182.336517,675.487793 
	C182.336395,676.987061 182.322037,678.486328 182.308472,679.985596 
	C182.290482,681.972778 181.783127,683.721191 179.521530,684.085876 
	C177.264084,684.449890 176.140381,683.156372 175.738953,680.593384 
z"/>
<path fill="#000000" opacity="1.000000" stroke="none" 
	d="
M427.652985,580.001221 
	C427.660889,575.005981 427.664124,570.510315 427.679382,566.014709 
	C427.686737,563.847351 428.096100,561.860168 430.831085,561.896912 
	C433.466400,561.932190 433.977936,563.937012 434.160248,566.045471 
	C434.246033,567.038025 434.210236,568.042053 434.210327,569.040894 
	C434.212860,604.340271 434.213104,639.639709 434.213593,674.939087 
	C434.213593,675.105591 434.232147,675.274902 434.209015,675.438171 
	C433.772034,678.523743 435.547852,683.277344 431.179291,683.870300 
	C425.917938,684.584473 428.647858,678.967590 427.047821,676.145935 
	C422.038727,680.927551 416.814392,684.555664 409.816010,685.542175 
	C394.586273,687.689209 378.258057,674.634216 377.735748,659.131653 
	C377.444366,650.483154 377.139526,641.774353 377.814545,633.169128 
	C378.697205,621.916931 385.143341,614.021362 395.407562,609.670349 
	C405.330688,605.463928 414.885925,606.386658 423.413086,613.503052 
	C424.551056,614.452759 425.573883,615.540344 427.653259,617.518433 
	C427.653259,604.474121 427.653259,592.487488 427.652985,580.001221 
M384.214569,657.190369 
	C384.252838,658.020813 384.225891,658.860352 384.339355,659.680359 
	C385.741333,669.814270 395.199554,678.259705 404.892548,679.001404 
	C415.796173,679.835876 426.939270,669.306274 427.327972,662.067566 
	C427.869354,651.986328 428.666626,641.793396 426.765076,631.753723 
	C424.475281,619.664062 415.374695,613.124512 402.913574,614.263367 
	C393.555054,615.118652 384.433167,625.553162 384.243591,635.804199 
	C384.117584,642.619690 384.211945,649.439270 384.214569,657.190369 
z"/>
<path fill="#000000" opacity="1.000000" stroke="none" 
	d="
M500.574585,674.342285 
	C502.835327,672.723511 504.888824,671.975037 506.520447,674.359253 
	C508.146637,676.735535 506.572144,678.626709 504.785645,679.879211 
	C494.226257,687.281860 482.678711,687.596680 471.028381,683.446167 
	C460.489685,679.691711 454.103302,671.978455 452.656403,660.655334 
	C451.450714,651.219666 451.287781,641.721680 452.626740,632.316772 
	C454.704529,617.722473 465.992004,607.732788 480.455750,607.170532 
	C493.326538,606.670166 504.942780,615.633118 508.650513,628.871277 
	C509.799255,632.972839 509.678741,637.169434 509.105560,641.250671 
	C508.592102,644.906921 506.351410,647.533569 502.382599,648.375488 
	C499.757568,648.932312 497.150757,649.218994 494.474670,649.210999 
	C484.321808,649.180542 474.167114,649.314758 464.016693,649.157288 
	C460.358032,649.100586 459.110657,650.394348 459.060760,654.080566 
	C458.856384,669.184692 467.541809,678.338318 482.751221,678.909668 
	C489.053864,679.146423 495.036987,678.494019 500.574585,674.342285 
M462.542725,624.103149 
	C458.691071,629.514893 458.730591,635.549561 459.541046,642.191284 
	C472.810242,642.709473 485.901184,643.372009 498.991058,641.747803 
	C502.248474,641.343506 502.735901,639.049683 502.798523,636.304565 
	C503.004364,627.281799 496.674744,618.131226 488.065430,615.158081 
	C478.682373,611.917664 469.532501,614.958984 462.542725,624.103149 
z"/>
<path fill="#000000" opacity="1.000000" stroke="none" 
	d="
M303.823975,659.999939 
	C303.822479,645.334534 303.819000,631.169006 303.824005,617.003540 
	C303.824463,615.671082 303.738831,614.317200 303.940033,613.011230 
	C304.248383,611.009827 304.681671,608.833862 307.356323,608.880920 
	C310.023956,608.927795 310.433136,610.894775 310.500549,613.079529 
	C310.535431,614.210938 310.811432,615.334961 311.048798,616.936523 
	C315.919006,611.624634 321.569855,608.138977 328.869965,607.394409 
	C344.367828,605.813416 359.858948,618.625488 360.222412,634.186584 
	C360.572540,649.177124 360.314178,664.182190 360.304840,679.180847 
	C360.303345,681.620117 360.116486,684.223816 356.814636,684.072937 
	C353.876221,683.938660 353.756073,681.430298 353.749207,679.225708 
	C353.703918,664.727112 353.896912,650.224854 353.637238,635.730530 
	C353.371643,620.907532 337.954926,610.148254 324.472534,615.389343 
	C316.982147,618.301086 312.333984,624.004578 311.266083,632.161194 
	C309.376007,646.597351 310.733124,661.113770 310.345276,675.588562 
	C310.300659,677.254028 310.330322,678.921814 310.270203,680.586487 
	C310.203156,682.444641 309.446075,683.886841 307.429138,684.073547 
	C305.282898,684.272156 304.345337,682.640747 304.199768,680.970642 
	C303.882446,677.330261 303.895416,673.658813 303.837341,669.998962 
	C303.787140,666.833313 303.825256,663.666321 303.823975,659.999939 
z"/>
<path fill="#000000" opacity="1.000000" stroke="none" 
	d="
M583.413574,673.511108 
	C585.972229,670.589539 587.884460,672.628052 589.630554,673.967346 
	C597.679871,680.141479 606.731689,680.200073 615.760254,677.578613 
	C625.098450,674.867188 627.538025,664.060791 621.024048,656.705444 
	C617.291626,652.490845 612.138550,651.033997 607.106262,649.329041 
	C603.960876,648.263306 600.734497,647.421448 597.631042,646.249878 
	C588.824707,642.925598 584.749268,637.519043 584.670715,629.314453 
	C584.579895,619.829895 589.050537,612.490784 597.455505,609.266113 
	C606.802490,605.679993 616.060852,606.905273 625.021912,610.878906 
	C627.018799,611.764465 628.995178,613.232666 627.626953,615.908691 
	C626.388489,618.330872 624.315491,618.357544 622.094543,617.190613 
	C616.590637,614.298462 610.683960,613.739746 604.622131,614.299622 
	C596.300476,615.068237 590.753357,621.659851 591.303406,629.960510 
	C591.717896,636.216553 596.460693,638.546692 601.227661,640.581726 
	C606.874390,642.992310 613.075378,643.845398 618.646729,646.584717 
	C629.153687,651.750854 633.175537,660.277710 630.324158,671.642578 
	C628.918457,677.245361 625.278809,681.024963 620.140564,683.142700 
	C609.184021,687.658508 598.374573,686.912048 588.034241,681.167297 
	C585.324341,679.661743 582.482788,677.811951 583.413574,673.511108 
z"/>
<path fill="#000000" opacity="1.000000" stroke="none" 
	d="
M537.934204,669.888306 
	C531.454834,651.641968 525.101257,633.765808 518.744629,615.890686 
	C518.521423,615.263000 518.185974,614.664490 518.042053,614.021301 
	C517.578979,611.950439 517.484314,609.859802 519.956604,609.039490 
	C522.361084,608.241638 523.734985,609.698242 524.506226,611.788269 
	C527.443848,619.749207 530.380493,627.710815 533.255127,635.694702 
	C537.422241,647.268311 541.535339,658.861450 546.065125,671.548889 
	C547.841064,666.939575 549.337402,663.221985 550.711731,659.459717 
	C556.364868,643.983948 561.985901,628.496460 567.604004,613.007874 
	C568.287231,611.124329 568.738159,608.770691 571.249390,608.882874 
	C575.313477,609.064392 575.079529,611.958862 574.130859,614.687866 
	C571.290039,622.860413 568.282898,630.974976 565.359070,639.118774 
	C560.413208,652.894958 555.486389,666.677979 550.538757,680.453491 
	C549.709412,682.762512 549.291321,685.711121 546.017334,685.587463 
	C543.092712,685.477051 542.701599,682.666382 541.872803,680.558655 
	C540.533264,677.152222 539.323853,673.694580 537.934204,669.888306 
z"/>
<path fill="#000000" opacity="1.000000" stroke="none" 
	d="
M276.675842,635.999878 
	C276.680267,628.342896 276.668701,621.185913 276.698792,614.029053 
	C276.708832,611.640259 276.744141,608.955872 280.014069,608.945374 
	C283.298096,608.934814 283.321106,611.598022 283.321320,614.004883 
	C283.323456,635.642212 283.325195,657.279480 283.304779,678.916809 
	C283.302551,681.287109 283.315735,684.039001 280.047943,684.042236 
	C276.824707,684.045410 276.722717,681.332886 276.717163,678.942322 
	C276.684326,664.794861 276.686005,650.647400 276.675842,635.999878 
z"/>
<path fill="#000000" opacity="1.000000" stroke="none" 
	d="
M279.237793,584.554688 
	C275.864227,583.665527 274.592194,581.667847 274.716309,578.617798 
	C274.798950,576.586060 275.779724,575.176025 277.533386,574.319153 
	C279.701904,573.259644 281.714783,573.826416 283.539551,575.202087 
	C285.371246,576.582947 285.614136,578.586121 285.088806,580.563049 
	C284.374695,583.250488 282.420013,584.595337 279.237793,584.554688 
z"/>
</svg>